<?xml version="1.0" encoding="us-ascii" standalone="no"?><svg xmlns="http://www.w3.org/2000/svg" xmlns:xlink="http://www.w3.org/1999/xlink" contentStyleType="text/css" height="561px" preserveAspectRatio="none" style="width:767px;height:561px;background:#FFFFFF;" version="1.1" viewBox="0 0 767 561" width="767px" zoomAndPan="magnify"><defs/><g><text fill="#000000" font-family="sans-serif" font-size="14" font-weight="bold" lengthAdjust="spacing" textLength="120" x="324.5" y="27.9951">&#20998;&#32026;&#28204;&#39511;&#32771;&#35430;&#27969;&#31243;</text><line style="stroke:#181818;stroke-width:0.5;stroke-dasharray:5.0,5.0;" x1="162" x2="162" y1="73.5938" y2="526.3203"/><line style="stroke:#181818;stroke-width:0.5;stroke-dasharray:5.0,5.0;" x1="513" x2="513" y1="73.5938" y2="526.3203"/><rect fill="#E2E2F0" height="30.2969" rx="2.5" ry="2.5" style="stroke:#181818;stroke-width:0.5;" width="42" x="141" y="42.2969"/><text fill="#000000" font-family="sans-serif" font-size="14" lengthAdjust="spacing" textLength="28" x="148" y="62.292">&#20896;&#23500;</text><rect fill="#E2E2F0" height="30.2969" rx="2.5" ry="2.5" style="stroke:#181818;stroke-width:0.5;" width="42" x="141" y="525.3203"/><text fill="#000000" font-family="sans-serif" font-size="14" lengthAdjust="spacing" textLength="28" x="148" y="545.3154">&#20896;&#23500;</text><rect fill="#E2E2F0" height="30.2969" rx="2.5" ry="2.5" style="stroke:#181818;stroke-width:0.5;" width="74" x="476" y="42.2969"/><text fill="#000000" font-family="sans-serif" font-size="14" lengthAdjust="spacing" textLength="60" x="483" y="62.292">AWS API</text><rect fill="#E2E2F0" height="30.2969" rx="2.5" ry="2.5" style="stroke:#181818;stroke-width:0.5;" width="74" x="476" y="525.3203"/><text fill="#000000" font-family="sans-serif" font-size="14" lengthAdjust="spacing" textLength="60" x="483" y="545.3154">AWS API</text><path d="M91,88.5938 L91,113.5938 L232,113.5938 L232,98.5938 L222,88.5938 L91,88.5938 " fill="#FEFFDD" style="stroke:#181818;stroke-width:0.5;"/><path d="M222,88.5938 L222,98.5938 L232,98.5938 L222,88.5938 " fill="#FEFFDD" style="stroke:#181818;stroke-width:0.5;"/><text fill="#000000" font-family="sans-serif" font-size="13" lengthAdjust="spacing" textLength="120" x="97" y="105.6606">1. &#38283;&#22987;&#19968;&#20491;&#26032;&#30340;&#28204;&#39511;</text><polygon fill="#181818" points="501,138.8594,511,142.8594,501,146.8594,505,142.8594" style="stroke:#181818;stroke-width:1.0;"/><line style="stroke:#181818;stroke-width:1.0;" x1="162" x2="507" y1="142.8594" y2="142.8594"/><text fill="#000000" font-family="sans-serif" font-size="13" lengthAdjust="spacing" textLength="139" x="169" y="137.7935">startExam(accountId)</text><path d="M518,123.7266 L518,148.7266 L703,148.7266 L703,133.7266 L693,123.7266 L518,123.7266 " fill="#FEFFDD" style="stroke:#181818;stroke-width:0.5;"/><path d="M693,123.7266 L693,133.7266 L703,133.7266 L693,123.7266 " fill="#FEFFDD" style="stroke:#181818;stroke-width:0.5;"/><text fill="#000000" font-family="sans-serif" font-size="13" lengthAdjust="spacing" textLength="164" x="524" y="140.7935">&#24171;accountId&#21109;&#24314;&#19968;&#20491;exam</text><polygon fill="#181818" points="173,170.9922,163,174.9922,173,178.9922,169,174.9922" style="stroke:#181818;stroke-width:1.0;"/><line style="stroke:#181818;stroke-width:1.0;stroke-dasharray:2.0,2.0;" x1="167" x2="512" y1="174.9922" y2="174.9922"/><text fill="#000000" font-family="sans-serif" font-size="13" lengthAdjust="spacing" textLength="189" x="179" y="169.9263">accountId, sk, nextQuestionId</text><path d="M117,187.9922 L117,212.9922 L206,212.9922 L206,197.9922 L196,187.9922 L117,187.9922 " fill="#FEFFDD" style="stroke:#181818;stroke-width:0.5;"/><path d="M196,187.9922 L196,197.9922 L206,197.9922 L196,187.9922 " fill="#FEFFDD" style="stroke:#181818;stroke-width:0.5;"/><text fill="#000000" font-family="sans-serif" font-size="13" lengthAdjust="spacing" textLength="68" x="123" y="205.0591">2. &#21462;&#24471;&#32771;&#38988;</text><polygon fill="#181818" points="501,238.2578,511,242.2578,501,246.2578,505,242.2578" style="stroke:#181818;stroke-width:1.0;"/><line style="stroke:#181818;stroke-width:1.0;" x1="162" x2="507" y1="242.2578" y2="242.2578"/><text fill="#000000" font-family="sans-serif" font-size="13" lengthAdjust="spacing" textLength="192" x="169" y="237.1919">getQuestions(nextQuestionId)</text><path d="M518,223.125 L518,248.125 L714,248.125 L714,233.125 L704,223.125 L518,223.125 " fill="#FEFFDD" style="stroke:#181818;stroke-width:0.5;"/><path d="M704,223.125 L704,233.125 L714,233.125 L704,223.125 " fill="#FEFFDD" style="stroke:#181818;stroke-width:0.5;"/><text fill="#000000" font-family="sans-serif" font-size="13" lengthAdjust="spacing" textLength="175" x="524" y="240.1919">&#20351;&#29992;nextQuestionId&#29554;&#24471;&#21839;&#38988;</text><polygon fill="#181818" points="173,270.3906,163,274.3906,173,278.3906,169,274.3906" style="stroke:#181818;stroke-width:1.0;"/><line style="stroke:#181818;stroke-width:1.0;stroke-dasharray:2.0,2.0;" x1="167" x2="512" y1="274.3906" y2="274.3906"/><text fill="#000000" font-family="sans-serif" font-size="13" lengthAdjust="spacing" textLength="55" x="179" y="269.3247">question</text><path d="M117,287.3906 L117,312.3906 L206,312.3906 L206,297.3906 L196,287.3906 L117,287.3906 " fill="#FEFFDD" style="stroke:#181818;stroke-width:0.5;"/><path d="M196,287.3906 L196,297.3906 L206,297.3906 L196,287.3906 " fill="#FEFFDD" style="stroke:#181818;stroke-width:0.5;"/><text fill="#000000" font-family="sans-serif" font-size="13" lengthAdjust="spacing" textLength="68" x="123" y="304.4575">3. &#22238;&#31572;&#38988;&#30446;</text><polygon fill="#181818" points="501,337.6563,511,341.6563,501,345.6563,505,341.6563" style="stroke:#181818;stroke-width:1.0;"/><line style="stroke:#181818;stroke-width:1.0;" x1="162" x2="507" y1="341.6563" y2="341.6563"/><text fill="#000000" font-family="sans-serif" font-size="13" lengthAdjust="spacing" textLength="327" x="169" y="336.5903">answerQuestion(accountId, sk, questionId, answer)</text><path d="M518,322.5234 L518,347.5234 L760,347.5234 L760,332.5234 L750,322.5234 L518,322.5234 " fill="#FEFFDD" style="stroke:#181818;stroke-width:0.5;"/><path d="M750,322.5234 L750,332.5234 L760,332.5234 L750,322.5234 " fill="#FEFFDD" style="stroke:#181818;stroke-width:0.5;"/><text fill="#000000" font-family="sans-serif" font-size="13" lengthAdjust="spacing" textLength="221" x="524" y="339.5903">&#21028;&#26039;&#31572;&#26696;&#26159;&#21542;&#27491;&#30906;&#65292;&#20006;&#26371;&#20659;&#19979;&#19968;&#38988;&#30340;ID</text><polygon fill="#181818" points="173,369.7891,163,373.7891,173,377.7891,169,373.7891" style="stroke:#181818;stroke-width:1.0;"/><line style="stroke:#181818;stroke-width:1.0;stroke-dasharray:2.0,2.0;" x1="167" x2="512" y1="373.7891" y2="373.7891"/><text fill="#000000" font-family="sans-serif" font-size="13" lengthAdjust="spacing" textLength="183" x="179" y="368.7231">nextQuestionId, examStatus</text><path d="M5,386.7891 L5,411.7891 L319,411.7891 L319,396.7891 L309,386.7891 L5,386.7891 " fill="#FEFFDD" style="stroke:#181818;stroke-width:0.5;"/><path d="M309,386.7891 L309,396.7891 L319,396.7891 L309,386.7891 " fill="#FEFFDD" style="stroke:#181818;stroke-width:0.5;"/><text fill="#000000" font-family="sans-serif" font-size="13" lengthAdjust="spacing" textLength="293" x="11" y="403.856">&#37325;&#35079;&#31532;2,3&#27493;&#65292;&#30452;&#21040;examStatus&#31561;&#26044;COMPLETED</text><path d="M46,421.9219 L46,446.9219 L278,446.9219 L278,431.9219 L268,421.9219 L46,421.9219 " fill="#FEFFDD" style="stroke:#181818;stroke-width:0.5;"/><path d="M268,421.9219 L268,431.9219 L278,431.9219 L268,421.9219 " fill="#FEFFDD" style="stroke:#181818;stroke-width:0.5;"/><text fill="#000000" font-family="sans-serif" font-size="13" lengthAdjust="spacing" textLength="211" x="52" y="438.9888">4. &#22238;&#39015;&#28204;&#39511;&#32080;&#26524;&#65292;&#25110;&#26159;&#28204;&#39511;&#27511;&#21490;&#32000;&#37636;</text><polygon fill="#181818" points="501,472.1875,511,476.1875,501,480.1875,505,476.1875" style="stroke:#181818;stroke-width:1.0;"/><line style="stroke:#181818;stroke-width:1.0;" x1="162" x2="507" y1="476.1875" y2="476.1875"/><text fill="#000000" font-family="sans-serif" font-size="13" lengthAdjust="spacing" textLength="159" x="169" y="471.1216">getExams(accountId, sk)</text><path d="M518,457.0547 L518,482.0547 L617,482.0547 L617,467.0547 L607,457.0547 L518,457.0547 " fill="#FEFFDD" style="stroke:#181818;stroke-width:0.5;"/><path d="M607,457.0547 L607,467.0547 L617,467.0547 L607,457.0547 " fill="#FEFFDD" style="stroke:#181818;stroke-width:0.5;"/><text fill="#000000" font-family="sans-serif" font-size="13" lengthAdjust="spacing" textLength="78" x="524" y="474.1216">&#22238;&#20659;&#28204;&#39511;&#32080;&#26524;</text><polygon fill="#181818" points="173,504.3203,163,508.3203,173,512.3203,169,508.3203" style="stroke:#181818;stroke-width:1.0;"/><line style="stroke:#181818;stroke-width:1.0;stroke-dasharray:2.0,2.0;" x1="167" x2="512" y1="508.3203" y2="508.3203"/><text fill="#000000" font-family="sans-serif" font-size="13" lengthAdjust="spacing" textLength="37" x="179" y="503.2544">Exam</text><!--SRC=[RPBDJi9058NtVOg9AqogYU3AXOb15YGQDPguRd22ZLf-EYXBLA8rO72XrL13n1_KICKeH4JKbs5cwCfNSCOYsjfTqtlkTywzTv2CLY70sWwj5qcpQjqUTpFRtTiAQMpIcvmWnAKaaYDoN58G6C0xPxYM7m2I2eAhCbIGiponE0ycPiFVTVOj24eCGH1RXycUV0oC30DBp-7hNAUPmPaSqHzeCMlx2hO638tpvZ6W8iOEfQKrdnI9n58A2YyDsiIa75rcBFnorw_WlGP-RTbGo7e4dcM8eNwC-qeHg2iYK60QpQMWYkIO4bxoIkeV1hYWutU-3wkSTwUBmdw_wdFId2axRn_qyCQfeFkF38oF2XpiJfheoRn21LWeeqJDGzP8ZNjtA4bHDs3onyVdcZdHznTxIjS-jKkYFpCuAMlaf8OFAiIyeEUjptQ-qwoGqssyzTHfyijnzs8sFFalktDC4V1Jp2C9fLIlQQpT_UxbBgrM_MA0c5VCXnfrh3tyTb5pZ-ZjuCpqx5He8JJf1HdzNebLlhPV4MqSaD8fGn5DPqFOFudvZ0kFj9wnybcFG_97fZgtvTgCKMAp_pNuDpbdV040]--></g></svg>