<?xml version="1.0" encoding="us-ascii" standalone="no"?><svg xmlns="http://www.w3.org/2000/svg" xmlns:xlink="http://www.w3.org/1999/xlink" contentStyleType="text/css" height="760px" preserveAspectRatio="none" style="width:813px;height:760px;background:#FFFFFF;" version="1.1" viewBox="0 0 813 760" width="813px" zoomAndPan="magnify"><defs/><g><text fill="#000000" font-family="sans-serif" font-size="14" font-weight="bold" lengthAdjust="spacing" textLength="120" x="347.75" y="27.9951">&#20998;&#32026;&#28204;&#39511;&#32771;&#35430;&#27969;&#31243;</text><line style="stroke:#181818;stroke-width:0.5;stroke-dasharray:5.0,5.0;" x1="121" x2="121" y1="73.5938" y2="725.1172"/><line style="stroke:#181818;stroke-width:0.5;stroke-dasharray:5.0,5.0;" x1="526.5" x2="526.5" y1="73.5938" y2="725.1172"/><line style="stroke:#181818;stroke-width:0.5;stroke-dasharray:5.0,5.0;" x1="610" x2="610" y1="73.5938" y2="725.1172"/><line style="stroke:#181818;stroke-width:0.5;stroke-dasharray:5.0,5.0;" x1="669" x2="669" y1="73.5938" y2="725.1172"/><rect fill="#E2E2F0" height="30.2969" rx="2.5" ry="2.5" style="stroke:#181818;stroke-width:0.5;" width="42" x="100" y="42.2969"/><text fill="#000000" font-family="sans-serif" font-size="14" lengthAdjust="spacing" textLength="28" x="107" y="62.292">&#20896;&#23500;</text><rect fill="#E2E2F0" height="30.2969" rx="2.5" ry="2.5" style="stroke:#181818;stroke-width:0.5;" width="42" x="100" y="724.1172"/><text fill="#000000" font-family="sans-serif" font-size="14" lengthAdjust="spacing" textLength="28" x="107" y="744.1123">&#20896;&#23500;</text><rect fill="#E2E2F0" height="30.2969" rx="2.5" ry="2.5" style="stroke:#181818;stroke-width:0.5;" width="37" x="508.5" y="42.2969"/><text fill="#000000" font-family="sans-serif" font-size="14" lengthAdjust="spacing" textLength="23" x="515.5" y="62.292">API</text><rect fill="#E2E2F0" height="30.2969" rx="2.5" ry="2.5" style="stroke:#181818;stroke-width:0.5;" width="37" x="508.5" y="724.1172"/><text fill="#000000" font-family="sans-serif" font-size="14" lengthAdjust="spacing" textLength="23" x="515.5" y="744.1123">API</text><rect fill="#E2E2F0" height="30.2969" rx="2.5" ry="2.5" style="stroke:#181818;stroke-width:0.5;" width="32" x="594" y="42.2969"/><text fill="#000000" font-family="sans-serif" font-size="14" lengthAdjust="spacing" textLength="18" x="601" y="62.292">S3</text><rect fill="#E2E2F0" height="30.2969" rx="2.5" ry="2.5" style="stroke:#181818;stroke-width:0.5;" width="32" x="594" y="724.1172"/><text fill="#000000" font-family="sans-serif" font-size="14" lengthAdjust="spacing" textLength="18" x="601" y="744.1123">S3</text><rect fill="#E2E2F0" height="30.2969" rx="2.5" ry="2.5" style="stroke:#181818;stroke-width:0.5;" width="67" x="636" y="42.2969"/><text fill="#000000" font-family="sans-serif" font-size="14" lengthAdjust="spacing" textLength="53" x="643" y="62.292">OpenAI</text><rect fill="#E2E2F0" height="30.2969" rx="2.5" ry="2.5" style="stroke:#181818;stroke-width:0.5;" width="67" x="636" y="724.1172"/><text fill="#000000" font-family="sans-serif" font-size="14" lengthAdjust="spacing" textLength="53" x="643" y="744.1123">OpenAI</text><path d="M37,88.5938 L37,113.5938 L204,113.5938 L204,98.5938 L194,88.5938 L37,88.5938 " fill="#FEFFDD" style="stroke:#181818;stroke-width:0.5;"/><path d="M194,88.5938 L194,98.5938 L204,98.5938 L194,88.5938 " fill="#FEFFDD" style="stroke:#181818;stroke-width:0.5;"/><text fill="#000000" font-family="sans-serif" font-size="13" lengthAdjust="spacing" textLength="146" x="43" y="105.6606">1. &#38283;&#22987;&#19968;&#20491;&#26032;&#30340;&#21475;&#35486;&#32244;&#32722;</text><polygon fill="#181818" points="515,138.8594,525,142.8594,515,146.8594,519,142.8594" style="stroke:#181818;stroke-width:1.0;"/><line style="stroke:#181818;stroke-width:1.0;" x1="121" x2="521" y1="142.8594" y2="142.8594"/><text fill="#000000" font-family="sans-serif" font-size="13" lengthAdjust="spacing" textLength="382" x="128" y="137.7935">startExam(article, examType: ARTICLE_SPEECH_PRACTICE)</text><path d="M532,123.7266 L532,148.7266 L657,148.7266 L657,133.7266 L647,123.7266 L532,123.7266 " fill="#FEFFDD" style="stroke:#181818;stroke-width:0.5;"/><path d="M647,123.7266 L647,133.7266 L657,133.7266 L647,123.7266 " fill="#FEFFDD" style="stroke:#181818;stroke-width:0.5;"/><text fill="#000000" font-family="sans-serif" font-size="13" lengthAdjust="spacing" textLength="104" x="538" y="140.7935">&#21109;&#24314;&#19968;&#20491;&#21475;&#35486;&#32244;&#32722;</text><polygon fill="#181818" points="132,170.9922,122,174.9922,132,178.9922,128,174.9922" style="stroke:#181818;stroke-width:1.0;"/><line style="stroke:#181818;stroke-width:1.0;stroke-dasharray:2.0,2.0;" x1="126" x2="526" y1="174.9922" y2="174.9922"/><text fill="#000000" font-family="sans-serif" font-size="13" lengthAdjust="spacing" textLength="84" x="138" y="169.9263">accountId, sk</text><path d="M60,187.9922 L60,212.9922 L182,212.9922 L182,197.9922 L172,187.9922 L60,187.9922 " fill="#FEFFDD" style="stroke:#181818;stroke-width:0.5;"/><path d="M172,187.9922 L172,197.9922 L182,197.9922 L172,187.9922 " fill="#FEFFDD" style="stroke:#181818;stroke-width:0.5;"/><text fill="#000000" font-family="sans-serif" font-size="13" lengthAdjust="spacing" textLength="101" x="66" y="205.0591">2. &#21462;&#24471;signedUrl</text><polygon fill="#181818" points="515,235.2578,525,239.2578,515,243.2578,519,239.2578" style="stroke:#181818;stroke-width:1.0;"/><line style="stroke:#181818;stroke-width:1.0;" x1="121" x2="521" y1="239.2578" y2="239.2578"/><text fill="#000000" font-family="sans-serif" font-size="13" lengthAdjust="spacing" textLength="218" x="128" y="234.1919">getUploadVoiceSignedURL(args...)</text><polygon fill="#181818" points="598,270.3906,608,274.3906,598,278.3906,602,274.3906" style="stroke:#181818;stroke-width:1.0;"/><line style="stroke:#181818;stroke-width:1.0;" x1="527" x2="604" y1="274.3906" y2="274.3906"/><text fill="#000000" font-family="sans-serif" font-size="13" lengthAdjust="spacing" textLength="40" x="534" y="269.3247">args...</text><path d="M615,252.2578 L615,277.2578 L776,277.2578 L776,262.2578 L766,252.2578 L615,252.2578 " fill="#FEFFDD" style="stroke:#181818;stroke-width:0.5;"/><path d="M766,252.2578 L766,262.2578 L776,262.2578 L766,252.2578 " fill="#FEFFDD" style="stroke:#181818;stroke-width:0.5;"/><text fill="#000000" font-family="sans-serif" font-size="13" lengthAdjust="spacing" textLength="140" x="621" y="269.3247">S3&#29983;&#25104;&#33256;&#26178;&#30340;signedUrl</text><path d="M411,252.2578 L411,277.2578 L522,277.2578 L522,262.2578 L512,252.2578 L411,252.2578 " fill="#FEFFDD" style="stroke:#181818;stroke-width:0.5;"/><path d="M512,252.2578 L512,262.2578 L522,262.2578 L512,252.2578 " fill="#FEFFDD" style="stroke:#181818;stroke-width:0.5;"/><text fill="#000000" font-family="sans-serif" font-size="13" lengthAdjust="spacing" textLength="90" x="417" y="269.3247">API&#20659;args&#32102;S3</text><polygon fill="#181818" points="538,302.5234,528,306.5234,538,310.5234,534,306.5234" style="stroke:#181818;stroke-width:1.0;"/><line style="stroke:#181818;stroke-width:1.0;stroke-dasharray:2.0,2.0;" x1="532" x2="609" y1="306.5234" y2="306.5234"/><text fill="#000000" font-family="sans-serif" font-size="13" lengthAdjust="spacing" textLength="59" x="544" y="301.4575">signedUrl</text><path d="M615,287.3906 L615,312.3906 L770,312.3906 L770,297.3906 L760,287.3906 L615,287.3906 " fill="#FEFFDD" style="stroke:#181818;stroke-width:0.5;"/><path d="M760,287.3906 L760,297.3906 L770,297.3906 L760,287.3906 " fill="#FEFFDD" style="stroke:#181818;stroke-width:0.5;"/><text fill="#000000" font-family="sans-serif" font-size="13" lengthAdjust="spacing" textLength="134" x="621" y="304.4575">S3&#22238;&#20659;signedUrl&#32102;API</text><polygon fill="#181818" points="132,334.6563,122,338.6563,132,342.6563,128,338.6563" style="stroke:#181818;stroke-width:1.0;"/><line style="stroke:#181818;stroke-width:1.0;stroke-dasharray:2.0,2.0;" x1="126" x2="526" y1="338.6563" y2="338.6563"/><text fill="#000000" font-family="sans-serif" font-size="13" lengthAdjust="spacing" textLength="59" x="138" y="333.5903">signedUrl</text><path d="M76,351.6563 L76,376.6563 L165,376.6563 L165,361.6563 L155,351.6563 L76,351.6563 " fill="#FEFFDD" style="stroke:#181818;stroke-width:0.5;"/><path d="M155,351.6563 L155,361.6563 L165,361.6563 L155,351.6563 " fill="#FEFFDD" style="stroke:#181818;stroke-width:0.5;"/><text fill="#000000" font-family="sans-serif" font-size="13" lengthAdjust="spacing" textLength="68" x="82" y="368.7231">3. &#19978;&#20659;&#38899;&#27284;</text><polygon fill="#181818" points="598,398.9219,608,402.9219,598,406.9219,602,402.9219" style="stroke:#181818;stroke-width:1.0;"/><line style="stroke:#181818;stroke-width:1.0;" x1="121" x2="604" y1="402.9219" y2="402.9219"/><text fill="#000000" font-family="sans-serif" font-size="13" lengthAdjust="spacing" textLength="208" x="128" y="397.856">&#30452;&#25509;&#19978;&#20659;mp3&#27284;&#26696;&#21040;S3&#30340;signedUrl</text><polygon fill="#181818" points="132,428.0547,122,432.0547,132,436.0547,128,432.0547" style="stroke:#181818;stroke-width:1.0;"/><line style="stroke:#181818;stroke-width:1.0;stroke-dasharray:2.0,2.0;" x1="126" x2="609" y1="432.0547" y2="432.0547"/><text fill="#000000" font-family="sans-serif" font-size="13" lengthAdjust="spacing" textLength="51" x="138" y="426.9888">success</text><polygon fill="#0000FF" points="657.5,463.1875,667.5,467.1875,657.5,471.1875,661.5,467.1875" style="stroke:#0000FF;stroke-width:1.0;"/><line style="stroke:#0000FF;stroke-width:1.0;stroke-dasharray:2.0,2.0;" x1="610" x2="663.5" y1="467.1875" y2="467.1875"/><text fill="#000000" font-family="sans-serif" font-size="13" lengthAdjust="spacing" textLength="29" x="617" y="462.1216">mp3</text><path d="M674,445.0547 L674,470.0547 L806,470.0547 L806,455.0547 L796,445.0547 L674,445.0547 " fill="#FEFFDD" style="stroke:#181818;stroke-width:0.5;"/><path d="M796,445.0547 L796,455.0547 L806,455.0547 L796,445.0547 " fill="#FEFFDD" style="stroke:#181818;stroke-width:0.5;"/><text fill="#000000" font-family="sans-serif" font-size="13" lengthAdjust="spacing" textLength="111" x="680" y="462.1216">OpenAI&#36681;&#25104;&#25991;&#23383;&#27284;</text><path d="M473,445.0547 L473,470.0547 L605,470.0547 L605,455.0547 L595,445.0547 L473,445.0547 " fill="#FEFFDD" style="stroke:#181818;stroke-width:0.5;"/><path d="M595,445.0547 L595,455.0547 L605,455.0547 L595,445.0547 " fill="#FEFFDD" style="stroke:#181818;stroke-width:0.5;"/><text fill="#000000" font-family="sans-serif" font-size="13" lengthAdjust="spacing" textLength="111" x="479" y="462.1216">&#35320;&#30332;S3 streaming</text><polygon fill="#0000FF" points="538,495.3203,528,499.3203,538,503.3203,534,499.3203" style="stroke:#0000FF;stroke-width:1.0;"/><line style="stroke:#0000FF;stroke-width:1.0;stroke-dasharray:2.0,2.0;" x1="532" x2="668.5" y1="499.3203" y2="499.3203"/><text fill="#000000" font-family="sans-serif" font-size="13" lengthAdjust="spacing" textLength="65" x="544" y="494.2544">&#21475;&#35498;&#25991;&#23383;&#27284;</text><path d="M410,480.1875 L410,505.1875 L522,505.1875 L522,490.1875 L512,480.1875 L410,480.1875 " fill="#FEFFDD" style="stroke:#181818;stroke-width:0.5;"/><path d="M512,480.1875 L512,490.1875 L522,490.1875 L512,480.1875 " fill="#FEFFDD" style="stroke:#181818;stroke-width:0.5;"/><text fill="#000000" font-family="sans-serif" font-size="13" lengthAdjust="spacing" textLength="91" x="416" y="497.2544">&#20786;&#23384;&#21475;&#35498;&#25991;&#23383;&#27284;</text><polygon fill="#0000FF" points="657.5,530.4531,667.5,534.4531,657.5,538.4531,661.5,534.4531" style="stroke:#0000FF;stroke-width:1.0;"/><line style="stroke:#0000FF;stroke-width:1.0;stroke-dasharray:2.0,2.0;" x1="527" x2="663.5" y1="534.4531" y2="534.4531"/><text fill="#000000" font-family="sans-serif" font-size="13" lengthAdjust="spacing" textLength="65" x="534" y="529.3872">&#21475;&#35498;&#25991;&#23383;&#27284;</text><path d="M674,515.3203 L674,540.3203 L786,540.3203 L786,525.3203 L776,515.3203 L674,515.3203 " fill="#FEFFDD" style="stroke:#181818;stroke-width:0.5;"/><path d="M776,515.3203 L776,525.3203 L786,525.3203 L776,515.3203 " fill="#FEFFDD" style="stroke:#181818;stroke-width:0.5;"/><text fill="#000000" font-family="sans-serif" font-size="13" lengthAdjust="spacing" textLength="91" x="680" y="532.3872">&#20998;&#26512;&#21475;&#35498;&#25991;&#23383;&#27284;</text><polygon fill="#0000FF" points="538,565.5859,528,569.5859,538,573.5859,534,569.5859" style="stroke:#0000FF;stroke-width:1.0;"/><line style="stroke:#0000FF;stroke-width:1.0;stroke-dasharray:2.0,2.0;" x1="532" x2="668.5" y1="569.5859" y2="569.5859"/><text fill="#000000" font-family="sans-serif" font-size="13" lengthAdjust="spacing" textLength="52" x="544" y="564.52">&#20998;&#26512;&#32080;&#26524;</text><path d="M423,550.4531 L423,575.4531 L522,575.4531 L522,560.4531 L512,550.4531 L423,550.4531 " fill="#FEFFDD" style="stroke:#181818;stroke-width:0.5;"/><path d="M512,550.4531 L512,560.4531 L522,560.4531 L512,550.4531 " fill="#FEFFDD" style="stroke:#181818;stroke-width:0.5;"/><text fill="#000000" font-family="sans-serif" font-size="13" lengthAdjust="spacing" textLength="78" x="429" y="567.52">&#20786;&#23384;&#20998;&#26512;&#32080;&#26524;</text><path d="M29,585.5859 L29,610.5859 L213,610.5859 L213,595.5859 L203,585.5859 L29,585.5859 " fill="#FEFFDD" style="stroke:#181818;stroke-width:0.5;"/><path d="M203,585.5859 L203,595.5859 L213,595.5859 L203,585.5859 " fill="#FEFFDD" style="stroke:#181818;stroke-width:0.5;"/><text fill="#000000" font-family="sans-serif" font-size="13" lengthAdjust="spacing" textLength="163" x="35" y="602.6528">&#37325;&#35079;&#31532;2,3&#27493;&#65292;&#23436;&#25104;&#25152;&#26377;&#32244;&#32722;</text><path d="M5,620.7188 L5,645.7188 L237,645.7188 L237,630.7188 L227,620.7188 L5,620.7188 " fill="#FEFFDD" style="stroke:#181818;stroke-width:0.5;"/><path d="M227,620.7188 L227,630.7188 L237,630.7188 L227,620.7188 " fill="#FEFFDD" style="stroke:#181818;stroke-width:0.5;"/><text fill="#000000" font-family="sans-serif" font-size="13" lengthAdjust="spacing" textLength="211" x="11" y="637.7856">4. &#22238;&#39015;&#28204;&#39511;&#32080;&#26524;&#65292;&#25110;&#26159;&#28204;&#39511;&#27511;&#21490;&#32000;&#37636;</text><polygon fill="#181818" points="515,667.9844,525,671.9844,515,675.9844,519,671.9844" style="stroke:#181818;stroke-width:1.0;"/><line style="stroke:#181818;stroke-width:1.0;" x1="121" x2="521" y1="671.9844" y2="671.9844"/><text fill="#000000" font-family="sans-serif" font-size="13" lengthAdjust="spacing" textLength="138" x="128" y="666.9185">exams(accountId, sk)</text><polygon fill="#181818" points="132,700.1172,122,704.1172,132,708.1172,128,704.1172" style="stroke:#181818;stroke-width:1.0;"/><line style="stroke:#181818;stroke-width:1.0;stroke-dasharray:2.0,2.0;" x1="126" x2="526" y1="704.1172" y2="704.1172"/><text fill="#000000" font-family="sans-serif" font-size="13" lengthAdjust="spacing" textLength="37" x="138" y="699.0513">Exam</text><path d="M17,684.9844 L17,709.9844 L116,709.9844 L116,694.9844 L106,684.9844 L17,684.9844 " fill="#FEFFDD" style="stroke:#181818;stroke-width:0.5;"/><path d="M106,684.9844 L106,694.9844 L116,694.9844 L106,684.9844 " fill="#FEFFDD" style="stroke:#181818;stroke-width:0.5;"/><text fill="#000000" font-family="sans-serif" font-size="13" lengthAdjust="spacing" textLength="78" x="23" y="702.0513">&#22238;&#20659;&#28204;&#39511;&#32080;&#26524;</text><!--SRC=[TLHTJzfG6BxlhpXnDv8WoUokk30XX6Ga9YDKTxCifeCprgoKXfPbksEEy35maCM0Yi6PJL42qoX4ihdjptXEozN-mjxs8DAkNhLzFvxdUP_pdkgIBcD4oaLZk4V7_Sbfoyn_C4-FwUYzSLBbE5NCwb92KaL5Hmka-8MSrHQGgA6mB655TwP3iQYTWwSp8V1sNE2TuISgLaAiXRrod9BHCSgymTafGH0z3A19iqgwrPjndkIhj7bkx1L8_QlPwnXNG-FFPuvLegKLYpY8D1qu8c_5zABD9MC_ml2rzax5GHIAhqN3gv4D8HQ9X1zlnEAXC0GYFaQSbLAlW99KHkJd3yRdO09yj0Gyjzh4H2AJK_Heqe-qrrxYbmE8r9laTqkJKWfEhcTbjzeKrjTLEICcdsQa11POMNmLjAUqG23WOvmhu1tGiPX3gy0RsmUqt31B9tHt4wovOxBBPFmIgW24R5vQ_SRe68v1uEqvc5_EXXakQNUWPvQ5HkjStHRSTNkCpmVGpVWZe4mEBcblUsvsQnoZFQIVZbX1MkMXW1wMIVaSHfeVOwfrHfXB9B2cSNRysOCNSWu_XpHR81H4WEGOX2NCNnKmYJPBPD2obCnvOtR7nkure6bw5ejfIKbnKx0vUDifUnTwdY2aS446E-u2sootndjmRdUlNAITXhlYFa5siJ5gqCw-XvhvhCVfJ4fRvhUIqUyl-tawEFfxNIFVQvPBbJpThqnNtgFl4InrkpCvxBB_1IE0Rbfkqfqp5gI3ArA_C8RvIQtWNddhDcgBZhlZ-s-lh0li6CdUndd6Vm00]--></g></svg>